<mxfile host="drawio-plugin" modified="2022-07-11T10:46:07.042Z" agent="5.0 (Windows NT 6.2; Win64; x64) AppleWebKit/537.36 (KHTML, like Gecko) Chrome/89.0.4389.90 Safari/537.36" etag="m5DpB7NjYphixxmNnAub" version="14.7.4" type="embed"><diagram id="_dS35BIV3Jq6pNmv8SHE" name="Architecture"><mxGraphModel dx="1061" dy="676" grid="1" gridSize="10" guides="1" tooltips="1" connect="1" arrows="1" fold="1" page="1" pageScale="1" pageWidth="850" pageHeight="1100" math="0" shadow="0"><root><mxCell id="2ggPfpL-Afl6c00kE8Ax-0"/><mxCell id="2ggPfpL-Afl6c00kE8Ax-1" parent="2ggPfpL-Afl6c00kE8Ax-0"/><mxCell id="kS74g8FhwI6yKb0_Vauk-11" style="edgeStyle=orthogonalEdgeStyle;rounded=0;orthogonalLoop=1;jettySize=auto;html=1;strokeColor=#0A0A0A;" edge="1" parent="2ggPfpL-Afl6c00kE8Ax-1" source="2ggPfpL-Afl6c00kE8Ax-2" target="kS74g8FhwI6yKb0_Vauk-0"><mxGeometry relative="1" as="geometry"/></mxCell><mxCell id="2ggPfpL-Afl6c00kE8Ax-2" value="Frontend" style="rounded=0;whiteSpace=wrap;html=1;horizontal=1;verticalAlign=top;labelPosition=center;verticalLabelPosition=middle;align=left;spacingLeft=9;fillColor=#f5f5f5;strokeColor=#666666;fontColor=#333333;" vertex="1" parent="2ggPfpL-Afl6c00kE8Ax-1"><mxGeometry x="190" y="180" width="440" height="210" as="geometry"/></mxCell><mxCell id="2ggPfpL-Afl6c00kE8Ax-4" value="Backend" style="rounded=0;whiteSpace=wrap;html=1;fillColor=#f5f5f5;strokeColor=#666666;fontColor=#333333;verticalAlign=top;align=left;spacingLeft=8;" vertex="1" parent="2ggPfpL-Afl6c00kE8Ax-1"><mxGeometry x="190" y="480" width="440" height="220" as="geometry"/></mxCell><mxCell id="N5250s3lBqCspk4wz-lg-5" style="edgeStyle=orthogonalEdgeStyle;rounded=0;orthogonalLoop=1;jettySize=auto;html=1;startArrow=none;startFill=0;strokeColor=#0A0A0A;" edge="1" parent="2ggPfpL-Afl6c00kE8Ax-1" source="VrSvi_pvZKBtnuMw0E94-0" target="Nktaw2pOceRUWdCU8n9d-0"><mxGeometry relative="1" as="geometry"/></mxCell><UserObject label="Vue Router" link="https://router.vuejs.org/" id="VrSvi_pvZKBtnuMw0E94-0"><mxCell style="rounded=1;whiteSpace=wrap;html=1;align=center;verticalAlign=middle;fillColor=#dae8fc;strokeColor=#6c8ebf;" vertex="1" parent="2ggPfpL-Afl6c00kE8Ax-1"><mxGeometry x="365" y="262.5" width="120" height="40" as="geometry"/></mxCell></UserObject><mxCell id="N5250s3lBqCspk4wz-lg-21" style="edgeStyle=orthogonalEdgeStyle;rounded=0;orthogonalLoop=1;jettySize=auto;html=1;startArrow=none;startFill=0;strokeColor=#0A0A0A;" edge="1" parent="2ggPfpL-Afl6c00kE8Ax-1" source="rL2IcUB-Ko3jyYURBDrE-0" target="VrSvi_pvZKBtnuMw0E94-0"><mxGeometry relative="1" as="geometry"/></mxCell><mxCell id="rL2IcUB-Ko3jyYURBDrE-0" value="./src/routes.js" style="whiteSpace=wrap;html=1;rounded=1;align=center;verticalAlign=middle;fillColor=#fff2cc;strokeColor=#d6b656;" vertex="1" parent="2ggPfpL-Afl6c00kE8Ax-1"><mxGeometry x="379" y="340" width="93" height="40" as="geometry"/></mxCell><mxCell id="N5250s3lBqCspk4wz-lg-15" style="edgeStyle=orthogonalEdgeStyle;rounded=0;orthogonalLoop=1;jettySize=auto;html=1;entryX=1;entryY=0.5;entryDx=0;entryDy=0;startArrow=none;startFill=0;strokeColor=#0A0A0A;" edge="1" parent="2ggPfpL-Afl6c00kE8Ax-1" source="kS74g8FhwI6yKb0_Vauk-0" target="2ggPfpL-Afl6c00kE8Ax-4"><mxGeometry relative="1" as="geometry"><Array as="points"><mxPoint x="715" y="590"/></Array></mxGeometry></mxCell><mxCell id="kS74g8FhwI6yKb0_Vauk-0" value="./dist" style="sketch=0;pointerEvents=1;shadow=0;dashed=0;html=1;strokeColor=none;fillColor=#505050;labelPosition=center;verticalLabelPosition=bottom;verticalAlign=top;outlineConnect=0;align=center;shape=mxgraph.office.concepts.folder;rounded=0;" vertex="1" parent="2ggPfpL-Afl6c00kE8Ax-1"><mxGeometry x="690" y="262.5" width="50" height="45" as="geometry"/></mxCell><mxCell id="kS74g8FhwI6yKb0_Vauk-4" style="edgeStyle=orthogonalEdgeStyle;rounded=0;orthogonalLoop=1;jettySize=auto;html=1;entryX=0;entryY=0.5;entryDx=0;entryDy=0;strokeColor=#0A0A0A;" edge="1" parent="2ggPfpL-Afl6c00kE8Ax-1" source="kS74g8FhwI6yKb0_Vauk-1" target="2ggPfpL-Afl6c00kE8Ax-2"><mxGeometry relative="1" as="geometry"/></mxCell><mxCell id="kS74g8FhwI6yKb0_Vauk-1" value="./frontend" style="sketch=0;pointerEvents=1;shadow=0;dashed=0;html=1;strokeColor=none;fillColor=#505050;labelPosition=center;verticalLabelPosition=bottom;verticalAlign=top;outlineConnect=0;align=center;shape=mxgraph.office.concepts.folder;rounded=0;" vertex="1" parent="2ggPfpL-Afl6c00kE8Ax-1"><mxGeometry x="80" y="262.5" width="50" height="45" as="geometry"/></mxCell><mxCell id="N5250s3lBqCspk4wz-lg-1" style="edgeStyle=orthogonalEdgeStyle;rounded=0;orthogonalLoop=1;jettySize=auto;html=1;startArrow=none;startFill=0;strokeColor=#0A0A0A;" edge="1" parent="2ggPfpL-Afl6c00kE8Ax-1" source="N_15dw66UlZOlsOzgBYS-0"><mxGeometry relative="1" as="geometry"><mxPoint x="410" y="450" as="targetPoint"/></mxGeometry></mxCell><mxCell id="N5250s3lBqCspk4wz-lg-0" value="./src/main.js" style="whiteSpace=wrap;html=1;rounded=1;align=center;verticalAlign=middle;fillColor=#fff2cc;strokeColor=#d6b656;" vertex="1" parent="2ggPfpL-Afl6c00kE8Ax-1"><mxGeometry x="490" y="340" width="130" height="40" as="geometry"/></mxCell><mxCell id="N5250s3lBqCspk4wz-lg-4" style="edgeStyle=orthogonalEdgeStyle;rounded=0;orthogonalLoop=1;jettySize=auto;html=1;entryX=1;entryY=0.5;entryDx=0;entryDy=0;startArrow=none;startFill=0;strokeColor=#0A0A0A;" edge="1" parent="2ggPfpL-Afl6c00kE8Ax-1" source="N5250s3lBqCspk4wz-lg-2" target="Nktaw2pOceRUWdCU8n9d-0"><mxGeometry relative="1" as="geometry"/></mxCell><UserObject label="Vuex" link="https://vuex.vuejs.org/" id="N5250s3lBqCspk4wz-lg-2"><mxCell style="rounded=1;whiteSpace=wrap;html=1;align=center;verticalAlign=middle;fillColor=#dae8fc;strokeColor=#6c8ebf;" vertex="1" parent="2ggPfpL-Afl6c00kE8Ax-1"><mxGeometry x="365" y="210" width="120" height="40" as="geometry"/></mxCell></UserObject><UserObject label="Bootstrap 5" link="https://getbootstrap.com/" id="N5250s3lBqCspk4wz-lg-7"><mxCell style="shape=image;verticalLabelPosition=bottom;labelBackgroundColor=none;verticalAlign=top;aspect=fixed;imageAspect=0;image=https://getbootstrap.com/docs/5.2/assets/brand/bootstrap-logo-shadow.png;" vertex="1" parent="2ggPfpL-Afl6c00kE8Ax-1"><mxGeometry x="550" y="200" width="40" height="33" as="geometry"/></mxCell></UserObject><mxCell id="N5250s3lBqCspk4wz-lg-13" value="" style="group" vertex="1" connectable="0" parent="2ggPfpL-Afl6c00kE8Ax-1"><mxGeometry x="200" y="210" width="120" height="40" as="geometry"/></mxCell><UserObject label="Vue 3" link="https://vuejs.org/" id="Nktaw2pOceRUWdCU8n9d-0"><mxCell style="rounded=1;whiteSpace=wrap;html=1;align=center;verticalAlign=middle;fillColor=#dae8fc;strokeColor=#6c8ebf;spacingLeft=12;" vertex="1" parent="N5250s3lBqCspk4wz-lg-13"><mxGeometry width="120" height="40" as="geometry"/></mxCell></UserObject><mxCell id="N5250s3lBqCspk4wz-lg-11" value="" style="shape=image;verticalLabelPosition=bottom;labelBackgroundColor=#ffffff;verticalAlign=top;aspect=fixed;imageAspect=0;image=https://v2.vuejs.org/images/logo.svg;" vertex="1" parent="N5250s3lBqCspk4wz-lg-13"><mxGeometry x="15" y="7.5" width="28.83" height="25" as="geometry"/></mxCell><mxCell id="N5250s3lBqCspk4wz-lg-14" value="" style="group" vertex="1" connectable="0" parent="2ggPfpL-Afl6c00kE8Ax-1"><mxGeometry x="510" y="415" width="120" height="50" as="geometry"/></mxCell><UserObject label="Socket.io" link="https://socket.io/" id="N_15dw66UlZOlsOzgBYS-0"><mxCell style="rounded=1;whiteSpace=wrap;html=1;fillColor=#b1ddf0;strokeColor=#10739e;spacingLeft=26;" vertex="1" parent="N5250s3lBqCspk4wz-lg-14"><mxGeometry width="120" height="50" as="geometry"/></mxCell></UserObject><mxCell id="N5250s3lBqCspk4wz-lg-12" value="" style="shape=image;verticalLabelPosition=bottom;labelBackgroundColor=#ffffff;verticalAlign=top;aspect=fixed;imageAspect=0;image=https://socket.io/images/logo.svg;" vertex="1" parent="N5250s3lBqCspk4wz-lg-14"><mxGeometry x="10" y="10" width="30" height="30" as="geometry"/></mxCell><UserObject label="Node.js" link="https://nodejs.org/en/" id="N5250s3lBqCspk4wz-lg-16"><mxCell style="shape=image;verticalLabelPosition=bottom;labelBackgroundColor=none;verticalAlign=top;aspect=fixed;imageAspect=0;image=https://upload.wikimedia.org/wikipedia/commons/thumb/d/d9/Node.js_logo.svg/150px-Node.js_logo.svg.png;" vertex="1" parent="2ggPfpL-Afl6c00kE8Ax-1"><mxGeometry x="518.48" y="500" width="81.52" height="50" as="geometry"/></mxCell></UserObject><mxCell id="N5250s3lBqCspk4wz-lg-22" value="" style="edgeStyle=orthogonalEdgeStyle;rounded=0;orthogonalLoop=1;jettySize=auto;html=1;startArrow=none;startFill=0;strokeColor=#0A0A0A;" edge="1" parent="2ggPfpL-Afl6c00kE8Ax-1" source="N5250s3lBqCspk4wz-lg-17" target="2ggPfpL-Afl6c00kE8Ax-4"><mxGeometry relative="1" as="geometry"/></mxCell><mxCell id="N5250s3lBqCspk4wz-lg-17" value="./backend" style="sketch=0;pointerEvents=1;shadow=0;dashed=0;html=1;strokeColor=none;fillColor=#505050;labelPosition=center;verticalLabelPosition=bottom;verticalAlign=top;outlineConnect=0;align=center;shape=mxgraph.office.concepts.folder;rounded=0;" vertex="1" parent="2ggPfpL-Afl6c00kE8Ax-1"><mxGeometry x="80" y="567.5" width="50" height="45" as="geometry"/></mxCell><mxCell id="N5250s3lBqCspk4wz-lg-33" style="edgeStyle=orthogonalEdgeStyle;rounded=0;orthogonalLoop=1;jettySize=auto;html=1;startArrow=none;startFill=0;strokeColor=#0A0A0A;" edge="1" parent="2ggPfpL-Afl6c00kE8Ax-1" source="N5250s3lBqCspk4wz-lg-23" target="N5250s3lBqCspk4wz-lg-32"><mxGeometry relative="1" as="geometry"/></mxCell><mxCell id="N5250s3lBqCspk4wz-lg-23" value="./src/webServer.js" style="whiteSpace=wrap;html=1;rounded=1;align=center;verticalAlign=middle;fillColor=#fff2cc;strokeColor=#d6b656;" vertex="1" parent="2ggPfpL-Afl6c00kE8Ax-1"><mxGeometry x="490" y="650" width="130" height="40" as="geometry"/></mxCell><UserObject label="Routes" id="N5250s3lBqCspk4wz-lg-24"><mxCell style="rounded=1;whiteSpace=wrap;html=1;align=center;verticalAlign=middle;fillColor=#dae8fc;strokeColor=#6c8ebf;" vertex="1" parent="2ggPfpL-Afl6c00kE8Ax-1"><mxGeometry x="210" y="525" width="120" height="40" as="geometry"/></mxCell></UserObject><mxCell id="kS74g8FhwI6yKb0_Vauk-13" value="REST API (only for Login)" style="edgeStyle=orthogonalEdgeStyle;rounded=0;orthogonalLoop=1;jettySize=auto;html=1;strokeColor=#0A0A0A;entryX=0.5;entryY=0;entryDx=0;entryDy=0;" edge="1" parent="2ggPfpL-Afl6c00kE8Ax-1" source="2ggPfpL-Afl6c00kE8Ax-2" target="N5250s3lBqCspk4wz-lg-24"><mxGeometry x="-0.1429" y="70" relative="1" as="geometry"><mxPoint x="220" y="440" as="targetPoint"/><Array as="points"><mxPoint x="270" y="510"/></Array><mxPoint as="offset"/></mxGeometry></mxCell><mxCell id="N5250s3lBqCspk4wz-lg-28" value="" style="edgeStyle=orthogonalEdgeStyle;rounded=0;orthogonalLoop=1;jettySize=auto;html=1;startArrow=none;startFill=0;strokeColor=#0A0A0A;" edge="1" parent="2ggPfpL-Afl6c00kE8Ax-1" source="N5250s3lBqCspk4wz-lg-27" target="N5250s3lBqCspk4wz-lg-24"><mxGeometry relative="1" as="geometry"/></mxCell><mxCell id="N5250s3lBqCspk4wz-lg-27" value="./routes" style="pointerEvents=1;shadow=0;dashed=0;html=1;strokeColor=none;labelPosition=center;verticalLabelPosition=bottom;verticalAlign=top;outlineConnect=0;align=center;shape=mxgraph.office.concepts.folder;fillColor=#2072B8;labelBackgroundColor=none;" vertex="1" parent="2ggPfpL-Afl6c00kE8Ax-1"><mxGeometry x="245" y="600" width="50" height="45" as="geometry"/></mxCell><UserObject label="Sockets" id="N5250s3lBqCspk4wz-lg-29"><mxCell style="rounded=1;whiteSpace=wrap;html=1;align=center;verticalAlign=middle;fillColor=#dae8fc;strokeColor=#6c8ebf;" vertex="1" parent="2ggPfpL-Afl6c00kE8Ax-1"><mxGeometry x="350" y="525" width="120" height="40" as="geometry"/></mxCell></UserObject><mxCell id="N5250s3lBqCspk4wz-lg-31" value="" style="edgeStyle=orthogonalEdgeStyle;rounded=0;orthogonalLoop=1;jettySize=auto;html=1;startArrow=none;startFill=0;strokeColor=#0A0A0A;" edge="1" parent="2ggPfpL-Afl6c00kE8Ax-1" source="N5250s3lBqCspk4wz-lg-30" target="N5250s3lBqCspk4wz-lg-29"><mxGeometry relative="1" as="geometry"/></mxCell><mxCell id="N5250s3lBqCspk4wz-lg-30" value="./sockets" style="pointerEvents=1;shadow=0;dashed=0;html=1;strokeColor=none;labelPosition=center;verticalLabelPosition=bottom;verticalAlign=top;outlineConnect=0;align=center;shape=mxgraph.office.concepts.folder;fillColor=#2072B8;labelBackgroundColor=none;" vertex="1" parent="2ggPfpL-Afl6c00kE8Ax-1"><mxGeometry x="385" y="600" width="50" height="45" as="geometry"/></mxCell><mxCell id="kS74g8FhwI6yKb0_Vauk-14" value="Websocket" style="edgeStyle=orthogonalEdgeStyle;rounded=0;orthogonalLoop=1;jettySize=auto;html=1;strokeColor=#0A0A0A;startArrow=classic;startFill=1;entryX=0.5;entryY=0;entryDx=0;entryDy=0;" edge="1" parent="2ggPfpL-Afl6c00kE8Ax-1" source="2ggPfpL-Afl6c00kE8Ax-2" target="N5250s3lBqCspk4wz-lg-29"><mxGeometry x="-0.5556" y="30" relative="1" as="geometry"><Array as="points"><mxPoint x="410" y="460"/><mxPoint x="410" y="460"/></Array><mxPoint as="offset"/></mxGeometry></mxCell><UserObject label="Express.js" link="https://expressjs.com/de/" id="N5250s3lBqCspk4wz-lg-32"><mxCell style="rounded=1;whiteSpace=wrap;html=1;align=center;verticalAlign=middle;fillColor=#dae8fc;strokeColor=#6c8ebf;" vertex="1" parent="2ggPfpL-Afl6c00kE8Ax-1"><mxGeometry x="495" y="590" width="120" height="40" as="geometry"/></mxCell></UserObject><mxCell id="N5250s3lBqCspk4wz-lg-35" style="edgeStyle=orthogonalEdgeStyle;rounded=0;orthogonalLoop=1;jettySize=auto;html=1;startArrow=none;startFill=0;strokeColor=#0A0A0A;" edge="1" parent="2ggPfpL-Afl6c00kE8Ax-1" source="N5250s3lBqCspk4wz-lg-34"><mxGeometry relative="1" as="geometry"><mxPoint x="270" y="435" as="targetPoint"/></mxGeometry></mxCell><UserObject label="passportjs" link="https://www.passportjs.org/" id="N5250s3lBqCspk4wz-lg-34"><mxCell style="shape=image;verticalLabelPosition=bottom;labelBackgroundColor=none;verticalAlign=top;aspect=fixed;imageAspect=0;image=https://www.passportjs.org/images/logo.svg;imageBackground=#000000;" vertex="1" parent="2ggPfpL-Afl6c00kE8Ax-1"><mxGeometry x="120" y="410" width="40" height="50" as="geometry"/></mxCell></UserObject><mxCell id="N5250s3lBqCspk4wz-lg-36" value="Database" style="rounded=0;whiteSpace=wrap;html=1;fillColor=#f5f5f5;strokeColor=#666666;fontColor=#333333;verticalAlign=top;align=left;spacingLeft=8;" vertex="1" parent="2ggPfpL-Afl6c00kE8Ax-1"><mxGeometry x="190" y="750" width="440" height="190" as="geometry"/></mxCell><UserObject label="PostgreSQL" link="https://www.postgresql.org/" id="N5250s3lBqCspk4wz-lg-38"><mxCell style="shape=image;verticalLabelPosition=bottom;labelBackgroundColor=none;verticalAlign=top;aspect=fixed;imageAspect=0;image=https://upload.wikimedia.org/wikipedia/commons/thumb/2/29/Postgresql_elephant.svg/640px-Postgresql_elephant.svg.png;" vertex="1" parent="2ggPfpL-Afl6c00kE8Ax-1"><mxGeometry x="543.96" y="760" width="46.04" height="47.5" as="geometry"/></mxCell></UserObject><mxCell id="N5250s3lBqCspk4wz-lg-40" value="" style="edgeStyle=orthogonalEdgeStyle;rounded=0;orthogonalLoop=1;jettySize=auto;html=1;startArrow=none;startFill=0;strokeColor=#0A0A0A;" edge="1" parent="2ggPfpL-Afl6c00kE8Ax-1" source="N5250s3lBqCspk4wz-lg-39" target="N5250s3lBqCspk4wz-lg-36"><mxGeometry relative="1" as="geometry"/></mxCell><mxCell id="N5250s3lBqCspk4wz-lg-39" value="./backend/db" style="sketch=0;pointerEvents=1;shadow=0;dashed=0;html=1;strokeColor=none;fillColor=#505050;labelPosition=center;verticalLabelPosition=bottom;verticalAlign=top;outlineConnect=0;align=center;shape=mxgraph.office.concepts.folder;rounded=0;" vertex="1" parent="2ggPfpL-Afl6c00kE8Ax-1"><mxGeometry x="80" y="822.5" width="50" height="45" as="geometry"/></mxCell><UserObject label="Sequelize" link="https://sequelize.org/" id="N5250s3lBqCspk4wz-lg-41"><mxCell style="shape=image;verticalLabelPosition=bottom;labelBackgroundColor=none;verticalAlign=top;aspect=fixed;imageAspect=0;image=https://sequelize.org/img/logo.svg;" vertex="1" parent="2ggPfpL-Afl6c00kE8Ax-1"><mxGeometry x="220.00000000000003" y="837.5" width="60.66" height="70" as="geometry"/></mxCell></UserObject><UserObject label="Models" id="N5250s3lBqCspk4wz-lg-42"><mxCell style="rounded=1;whiteSpace=wrap;html=1;align=center;verticalAlign=middle;fillColor=#dae8fc;strokeColor=#6c8ebf;" vertex="1" parent="2ggPfpL-Afl6c00kE8Ax-1"><mxGeometry x="350" y="780" width="120" height="40" as="geometry"/></mxCell></UserObject><mxCell id="N5250s3lBqCspk4wz-lg-43" style="edgeStyle=orthogonalEdgeStyle;rounded=0;orthogonalLoop=1;jettySize=auto;html=1;entryX=0.5;entryY=0;entryDx=0;entryDy=0;startArrow=none;startFill=0;strokeColor=#0A0A0A;" edge="1" parent="2ggPfpL-Afl6c00kE8Ax-1" source="2ggPfpL-Afl6c00kE8Ax-4" target="N5250s3lBqCspk4wz-lg-42"><mxGeometry relative="1" as="geometry"/></mxCell><mxCell id="N5250s3lBqCspk4wz-lg-49" value="" style="edgeStyle=orthogonalEdgeStyle;rounded=0;orthogonalLoop=1;jettySize=auto;html=1;startArrow=none;startFill=0;strokeColor=#0A0A0A;" edge="1" parent="2ggPfpL-Afl6c00kE8Ax-1" source="N5250s3lBqCspk4wz-lg-44" target="N5250s3lBqCspk4wz-lg-42"><mxGeometry relative="1" as="geometry"/></mxCell><mxCell id="N5250s3lBqCspk4wz-lg-51" value="managed by" style="edgeStyle=orthogonalEdgeStyle;rounded=0;orthogonalLoop=1;jettySize=auto;html=1;startArrow=none;startFill=0;strokeColor=#0A0A0A;" edge="1" parent="2ggPfpL-Afl6c00kE8Ax-1" source="N5250s3lBqCspk4wz-lg-44" target="N5250s3lBqCspk4wz-lg-41"><mxGeometry relative="1" as="geometry"/></mxCell><mxCell id="N5250s3lBqCspk4wz-lg-44" value="./models" style="pointerEvents=1;shadow=0;dashed=0;html=1;strokeColor=none;labelPosition=center;verticalLabelPosition=bottom;verticalAlign=top;outlineConnect=0;align=center;shape=mxgraph.office.concepts.folder;fillColor=#2072B8;labelBackgroundColor=none;" vertex="1" parent="2ggPfpL-Afl6c00kE8Ax-1"><mxGeometry x="385" y="850" width="50" height="45" as="geometry"/></mxCell><mxCell id="IhYv3Ip5JcDxHcqgtJNI-1" value="" style="edgeStyle=orthogonalEdgeStyle;rounded=0;orthogonalLoop=1;jettySize=auto;html=1;startArrow=none;startFill=0;strokeColor=#0A0A0A;" edge="1" parent="2ggPfpL-Afl6c00kE8Ax-1" source="IhYv3Ip5JcDxHcqgtJNI-0" target="N5250s3lBqCspk4wz-lg-36"><mxGeometry relative="1" as="geometry"/></mxCell><mxCell id="IhYv3Ip5JcDxHcqgtJNI-0" value="" style="sketch=0;aspect=fixed;html=1;points=[];align=center;image;fontSize=12;image=img/lib/mscae/Docker.svg;rounded=0;" vertex="1" parent="2ggPfpL-Afl6c00kE8Ax-1"><mxGeometry x="690" y="824.5" width="50" height="41" as="geometry"/></mxCell><mxCell id="kTW0Jyxsp5N4tbLSN2_u-1" value="" style="edgeStyle=orthogonalEdgeStyle;rounded=0;orthogonalLoop=1;jettySize=auto;html=1;startArrow=none;startFill=0;strokeColor=#0A0A0A;" edge="1" parent="2ggPfpL-Afl6c00kE8Ax-1" source="kTW0Jyxsp5N4tbLSN2_u-0" target="IhYv3Ip5JcDxHcqgtJNI-0"><mxGeometry relative="1" as="geometry"/></mxCell><mxCell id="kTW0Jyxsp5N4tbLSN2_u-0" value="File:&lt;br&gt;./docker-compose.yml" style="whiteSpace=wrap;html=1;rounded=1;align=center;verticalAlign=middle;fillColor=#fff2cc;strokeColor=#d6b656;" vertex="1" parent="2ggPfpL-Afl6c00kE8Ax-1"><mxGeometry x="645" y="895" width="140" height="32.5" as="geometry"/></mxCell></root></mxGraphModel></diagram></mxfile>